<svg width="149" height="30" viewBox="0 0 149 30" fill="none" xmlns="http://www.w3.org/2000/svg">
<path d="M1.6807 24.8945H3.30956V20.9761H5.38404C7.4278 20.9761 8.82615 19.6699 8.82615 17.8566C8.82615 16.028 7.4278 14.7526 5.38404 14.7526H1.6807V24.8945ZM3.30956 19.5316V16.1971H5.35331C6.5058 16.1971 7.1512 16.8732 7.1512 17.872C7.1512 18.8708 6.5058 19.5316 5.35331 19.5316H3.30956ZM22.8713 24.8945L19.8287 20.7148C21.0427 20.2385 21.7803 19.1935 21.7803 17.8566C21.7803 16.028 20.3819 14.7526 18.3382 14.7526H14.6348V24.8945H16.2637V20.9761H18.123L21.012 24.8945H22.8713ZM16.2637 16.1971H18.3074C19.4292 16.1971 20.1053 16.8732 20.1053 17.872C20.1053 18.8555 19.4292 19.5316 18.3074 19.5316H16.2637V16.1971ZM27.4845 19.8236C27.4231 22.7278 29.8971 25.1097 32.8014 25.0636C35.6749 25.1097 38.195 22.7278 38.1336 19.8236C38.195 16.9193 35.6749 14.5375 32.8014 14.5836C29.9124 14.5375 27.4384 16.9193 27.4845 19.8236ZM36.4586 19.8082C36.4586 21.9749 34.8912 23.573 32.8167 23.573C30.7115 23.573 29.1749 21.9749 29.1749 19.8082C29.1749 17.6722 30.7115 16.0741 32.8167 16.0741C34.8912 16.0741 36.4586 17.6876 36.4586 19.8082ZM43.47 19.8236C43.4239 22.7278 45.8518 25.1097 48.8175 25.0636C50.8613 25.0636 52.6438 24.0033 53.5504 22.3898V19.5316H48.8022V20.9761H51.9216V22.0671C51.2915 23.0352 50.2313 23.6037 48.8944 23.6037C46.7123 23.6037 45.1603 21.9749 45.1603 19.8082C45.1603 17.6722 46.6662 16.0741 48.8022 16.0741C50.0622 16.0741 51.0764 16.612 51.8294 17.6722L53.0126 16.7041C52.0445 15.3519 50.5847 14.5836 48.8175 14.5836C45.8825 14.5375 43.4085 16.9193 43.47 19.8236ZM67.7813 24.8945L64.7387 20.7148C65.9527 20.2385 66.6903 19.1935 66.6903 17.8566C66.6903 16.028 65.2919 14.7526 63.2482 14.7526H59.5448V24.8945H61.1737V20.9761H63.033L65.922 24.8945H67.7813ZM61.1737 16.1971H63.2174C64.3392 16.1971 65.0153 16.8732 65.0153 17.872C65.0153 18.8555 64.3392 19.5316 63.2174 19.5316H61.1737V16.1971ZM80.0417 24.8945H81.7935L77.3218 14.5836H76.7686L72.2969 24.8945H74.0333L74.7556 23.2042H79.3194L80.0417 24.8945ZM78.7355 21.8059H75.3395L77.0452 17.6108L78.7355 21.8059ZM96.4856 14.5836L92.229 20.2538L87.9725 14.5836H87.4039V24.8945H89.0328V18.5174L91.9524 22.3437H92.5056L95.4099 18.5328V24.8945H97.0388V14.5836H96.4856ZM112.666 14.5836L108.41 20.2538L104.153 14.5836H103.584V24.8945H105.213V18.5174L108.133 22.3437H108.686L111.59 18.5328V24.8945H113.219V14.5836H112.666ZM126.572 24.8945H128.324L123.852 14.5836H123.299L118.828 24.8945H120.564L121.286 23.2042H125.85L126.572 24.8945ZM125.266 21.8059H121.87L123.576 17.6108L125.266 21.8059ZM142.171 24.8945L139.129 20.7148C140.342 20.2385 141.08 19.1935 141.08 17.8566C141.08 16.028 139.682 14.7526 137.638 14.7526H133.935V24.8945H135.563V20.9761H137.423L140.312 24.8945H142.171ZM135.563 16.1971H137.607C138.729 16.1971 139.405 16.8732 139.405 17.872C139.405 18.8555 138.729 19.5316 137.607 19.5316H135.563V16.1971Z" fill="#9F83C6"/>
<path d="M148.308 3.40493C148.308 5.03924 147.095 6.28444 145.427 6.28444C143.759 6.28444 142.546 5.03924 142.546 3.40493C142.546 1.77062 143.759 0.525428 145.427 0.525428C147.095 0.447604 148.308 1.69279 148.308 3.40493ZM147.778 3.40493C147.778 2.00409 146.792 0.992375 145.427 0.992375C144.062 0.992375 143.077 2.00409 143.077 3.40493C143.077 4.80577 144.062 5.81749 145.427 5.81749C146.792 5.81749 147.778 4.72795 147.778 3.40493ZM146.489 4.02753L146.564 4.72795H146.034L145.958 4.02753C145.958 3.79405 145.806 3.63841 145.579 3.63841H144.972V4.72795H144.441V2.00409H145.503C146.034 2.00409 146.413 2.31539 146.413 2.86016C146.413 3.17146 146.261 3.32711 146.034 3.48276C146.337 3.56058 146.413 3.71623 146.489 4.02753ZM145.048 3.24928H145.579C145.882 3.24928 145.958 3.01581 145.958 2.86016C145.958 2.62669 145.806 2.47104 145.579 2.47104H145.048V3.24928Z" fill="#9F83C6"/>
</svg>
