<svg width="149" height="30" viewBox="0 0 149 30" fill="none" xmlns="http://www.w3.org/2000/svg">
<path d="M1.6807 24.8944H3.30956V20.9759H5.38404C7.4278 20.9759 8.82615 19.6698 8.82615 17.8565C8.82615 16.0279 7.4278 14.7525 5.38404 14.7525H1.6807V24.8944ZM3.30956 19.5315V16.1969H5.35331C6.5058 16.1969 7.1512 16.8731 7.1512 17.8719C7.1512 18.8707 6.5058 19.5315 5.35331 19.5315H3.30956ZM22.8713 24.8944L19.8287 20.7147C21.0427 20.2383 21.7803 19.1934 21.7803 17.8565C21.7803 16.0279 20.3819 14.7525 18.3382 14.7525H14.6348V24.8944H16.2637V20.9759H18.123L21.012 24.8944H22.8713ZM16.2637 16.1969H18.3074C19.4292 16.1969 20.1053 16.8731 20.1053 17.8719C20.1053 18.8553 19.4292 19.5315 18.3074 19.5315H16.2637V16.1969ZM27.4845 19.8234C27.4231 22.7277 29.8971 25.1095 32.8014 25.0634C35.6749 25.1095 38.195 22.7277 38.1336 19.8234C38.195 16.9192 35.6749 14.5373 32.8014 14.5834C29.9124 14.5373 27.4384 16.9192 27.4845 19.8234ZM36.4586 19.8081C36.4586 21.9748 34.8912 23.5729 32.8167 23.5729C30.7115 23.5729 29.1749 21.9748 29.1749 19.8081C29.1749 17.6721 30.7115 16.074 32.8167 16.074C34.8912 16.074 36.4586 17.6875 36.4586 19.8081ZM43.47 19.8234C43.4239 22.7277 45.8518 25.1095 48.8175 25.0634C50.8613 25.0634 52.6438 24.0031 53.5504 22.3897V19.5315H48.8022V20.9759H51.9216V22.067C51.2915 23.0351 50.2313 23.6036 48.8944 23.6036C46.7123 23.6036 45.1603 21.9748 45.1603 19.8081C45.1603 17.6721 46.6662 16.074 48.8022 16.074C50.0622 16.074 51.0764 16.6118 51.8294 17.6721L53.0126 16.704C52.0445 15.3518 50.5847 14.5834 48.8175 14.5834C45.8825 14.5373 43.4085 16.9192 43.47 19.8234ZM67.7813 24.8944L64.7387 20.7147C65.9527 20.2383 66.6903 19.1934 66.6903 17.8565C66.6903 16.0279 65.2919 14.7525 63.2482 14.7525H59.5448V24.8944H61.1737V20.9759H63.033L65.922 24.8944H67.7813ZM61.1737 16.1969H63.2174C64.3392 16.1969 65.0153 16.8731 65.0153 17.8719C65.0153 18.8553 64.3392 19.5315 63.2174 19.5315H61.1737V16.1969ZM80.0417 24.8944H81.7935L77.3218 14.5834H76.7686L72.2969 24.8944H74.0333L74.7556 23.2041H79.3194L80.0417 24.8944ZM78.7355 21.8057H75.3395L77.0452 17.6107L78.7355 21.8057ZM96.4856 14.5834L92.229 20.2537L87.9725 14.5834H87.4039V24.8944H89.0328V18.5173L91.9524 22.3436H92.5056L95.4099 18.5326V24.8944H97.0388V14.5834H96.4856ZM112.666 14.5834L108.41 20.2537L104.153 14.5834H103.584V24.8944H105.213V18.5173L108.133 22.3436H108.686L111.59 18.5326V24.8944H113.219V14.5834H112.666ZM126.572 24.8944H128.324L123.852 14.5834H123.299L118.828 24.8944H120.564L121.286 23.2041H125.85L126.572 24.8944ZM125.266 21.8057H121.87L123.576 17.6107L125.266 21.8057ZM142.171 24.8944L139.129 20.7147C140.342 20.2383 141.08 19.1934 141.08 17.8565C141.08 16.0279 139.682 14.7525 137.638 14.7525H133.935V24.8944H135.563V20.9759H137.423L140.312 24.8944H142.171ZM135.563 16.1969H137.607C138.729 16.1969 139.405 16.8731 139.405 17.8719C139.405 18.8553 138.729 19.5315 137.607 19.5315H135.563V16.1969Z" fill="#866118"/>
<path d="M148.308 3.40493C148.308 5.03924 147.095 6.28444 145.427 6.28444C143.759 6.28444 142.546 5.03924 142.546 3.40493C142.546 1.77062 143.759 0.525428 145.427 0.525428C147.095 0.447604 148.308 1.69279 148.308 3.40493ZM147.778 3.40493C147.778 2.00409 146.792 0.992375 145.427 0.992375C144.062 0.992375 143.077 2.00409 143.077 3.40493C143.077 4.80577 144.062 5.81749 145.427 5.81749C146.792 5.81749 147.778 4.72795 147.778 3.40493ZM146.489 4.02753L146.564 4.72795H146.034L145.958 4.02753C145.958 3.79405 145.806 3.63841 145.579 3.63841H144.972V4.72795H144.441V2.00409H145.503C146.034 2.00409 146.413 2.31539 146.413 2.86016C146.413 3.17146 146.261 3.32711 146.034 3.48276C146.337 3.56058 146.413 3.71623 146.489 4.02753ZM145.048 3.24928H145.579C145.882 3.24928 145.958 3.01581 145.958 2.86016C145.958 2.62669 145.806 2.47104 145.579 2.47104H145.048V3.24928Z" fill="#866118"/>
</svg>
