<svg width="159" height="159" viewBox="0 0 159 159" fill="none" xmlns="http://www.w3.org/2000/svg">
<rect x="0.104167" y="0.937495" width="158.125" height="157.292" rx="46.5625" fill="#FBFBFB" stroke="black" stroke-width="0.208333"/>
<circle cx="78.75" cy="79.5833" r="37.9167" fill="#E4E4E5"/>
<path d="M89.7917 71.748V72.0833H82.7083V65H83.0436C83.3958 65 83.7336 65.1399 83.9827 65.389L89.4026 70.8089C89.6517 71.058 89.7916 71.3958 89.7917 71.748ZM82.2656 73.8542C81.5351 73.8542 80.9375 73.2565 80.9375 72.526V65H69.8698C69.1363 65 68.5417 65.5946 68.5417 66.3281V92.0052C68.5417 92.7387 69.1363 93.3333 69.8698 93.3333H88.4635C89.197 93.3333 89.7917 92.7387 89.7917 92.0052V73.8542H82.2656ZM74.7697 74.7396C76.2368 74.7396 77.426 75.9288 77.426 77.3958C77.426 78.8629 76.2368 80.0521 74.7697 80.0521C73.3027 80.0521 72.1135 78.8629 72.1135 77.3958C72.1135 75.9288 73.3028 74.7396 74.7697 74.7396ZM86.2802 88.0208H72.1135L72.1403 85.3377L74.327 83.151C74.5863 82.8917 74.98 82.9186 75.2393 83.1779L77.426 85.3646L83.1544 79.6362C83.4137 79.3769 83.8341 79.3769 84.0935 79.6362L86.2802 81.8229V88.0208Z" fill="black"/>
</svg>
