<svg width="12" height="10" viewBox="0 0 12 10" fill="none" xmlns="http://www.w3.org/2000/svg">
<path d="M7.97192 0.687988C7.7346 0.437337 7.34982 0.437337 7.1125 0.687988C6.87518 0.938638 6.87518 1.34502 7.1125 1.59567L9.44899 4.06337H0.940954C0.605329 4.06337 0.333252 4.35072 0.333252 4.7052C0.333252 5.05967 0.605329 5.34703 0.940954 5.34703H9.57215L7.1125 7.94478C6.87518 8.19545 6.87518 8.60178 7.1125 8.85245C7.34982 9.10311 7.7346 9.10311 7.97192 8.85245L11.4074 5.22405C11.6447 4.9734 11.6447 4.56702 11.4074 4.31637L11.35 4.2557C11.3472 4.25279 11.3445 4.2499 11.3417 4.24705L7.97192 0.687988Z" fill="#74767E"/>
</svg>
