<svg width="36" height="16" viewBox="0 0 36 16" fill="none" xmlns="http://www.w3.org/2000/svg">
<path d="M13.2142 5.4675V7.6775H15.8142V8.685H13.2142V10.9925H16.1392V12H11.9792V4.46H16.1392V5.4675H13.2142ZM17.2486 8.98833C17.2486 8.38889 17.3714 7.85806 17.617 7.39583C17.8698 6.93361 18.2092 6.57611 18.6353 6.32333C19.0686 6.06333 19.5489 5.93333 20.0761 5.93333C20.4661 5.93333 20.8489 6.02 21.2245 6.19333C21.6073 6.35944 21.9106 6.58333 22.1345 6.865V3.98333H23.3803V12H22.1345V11.1008C21.9323 11.3897 21.6506 11.6281 21.2895 11.8158C20.9356 12.0036 20.5275 12.0975 20.0653 12.0975C19.5453 12.0975 19.0686 11.9675 18.6353 11.7075C18.2092 11.4403 17.8698 11.0719 17.617 10.6025C17.3714 10.1258 17.2486 9.58778 17.2486 8.98833ZM22.1345 9.01C22.1345 8.59833 22.0478 8.24083 21.8745 7.9375C21.7084 7.63417 21.4881 7.40306 21.2136 7.24417C20.9392 7.08528 20.6431 7.00583 20.3253 7.00583C20.0075 7.00583 19.7114 7.08528 19.437 7.24417C19.1625 7.39583 18.9386 7.62333 18.7653 7.92667C18.5992 8.22278 18.5161 8.57667 18.5161 8.98833C18.5161 9.4 18.5992 9.76111 18.7653 10.0717C18.9386 10.3822 19.1625 10.6206 19.437 10.7867C19.7186 10.9456 20.0148 11.025 20.3253 11.025C20.6431 11.025 20.9392 10.9456 21.2136 10.7867C21.4881 10.6278 21.7084 10.3967 21.8745 10.0933C22.0478 9.78278 22.1345 9.42167 22.1345 9.01ZM25.6308 5.24C25.4069 5.24 25.2191 5.16417 25.0674 5.0125C24.9158 4.86083 24.8399 4.67306 24.8399 4.44917C24.8399 4.22528 24.9158 4.0375 25.0674 3.88583C25.2191 3.73417 25.4069 3.65833 25.6308 3.65833C25.8474 3.65833 26.0316 3.73417 26.1833 3.88583C26.3349 4.0375 26.4108 4.22528 26.4108 4.44917C26.4108 4.67306 26.3349 4.86083 26.1833 5.0125C26.0316 5.16417 25.8474 5.24 25.6308 5.24ZM26.2374 6.03083V12H25.0024V6.03083H26.2374ZM29.2997 7.03833V10.3425C29.2997 10.5664 29.3503 10.7289 29.4514 10.83C29.5597 10.9239 29.7403 10.9708 29.993 10.9708H30.7514V12H29.7764C29.2203 12 28.7942 11.87 28.498 11.61C28.2019 11.35 28.0539 10.9275 28.0539 10.3425V7.03833H27.3497V6.03083H28.0539V4.54667H29.2997V6.03083H30.7514V7.03833H29.2997Z" fill="#3F7EEB"/>
<path d="M8.43717 6.70953L7.68681 7.53492C7.61031 7.61907 7.48661 7.61907 7.41011 7.53492L5.60338 5.54754C5.52688 5.46339 5.52688 5.32731 5.60338 5.24316L6.35374 4.41777C6.65812 4.08296 7.15294 4.08296 7.45894 4.41777L8.43717 5.49382C8.74318 5.82864 8.74318 6.37293 8.43717 6.70953ZM4.95882 5.95218L0.684537 10.6539L0.339469 12.8292C0.292266 13.1229 0.525024 13.3771 0.791963 13.327L2.76959 12.9456L7.04388 8.24393C7.12038 8.15978 7.12038 8.02371 7.04388 7.93956L5.23716 5.95218C5.15903 5.86803 5.03532 5.86803 4.95882 5.95218ZM2.35291 10.251C2.26339 10.1525 2.26339 9.99498 2.35291 9.89651L4.85953 7.13924C4.94906 7.04076 5.09229 7.04076 5.18182 7.13924C5.27134 7.23771 5.27134 7.39527 5.18182 7.49374L2.67519 10.251C2.58567 10.3495 2.44243 10.3495 2.35291 10.251ZM1.76532 11.7568H2.5466V12.4067L1.49675 12.609L0.99054 12.0522L1.17447 10.8974H1.76532V11.7568Z" fill="#3F7EEB"/>
</svg>
