<svg width="18" height="18" viewBox="0 0 18 18" fill="none" xmlns="http://www.w3.org/2000/svg">
<g clip-path="url(#clip0_21_178)">
<path d="M17.2592 8.84046C17.2595 7.22254 16.7963 5.63843 15.9242 4.27566C15.0522 2.91289 13.8079 1.82855 12.3387 1.15103C10.8695 0.473507 9.23693 0.231184 7.63424 0.452751C6.03158 0.674317 4.52598 1.35049 3.29571 2.40122C2.06543 3.45194 1.16201 4.8332 0.692413 6.38145C0.222815 7.92969 0.206712 9.5801 0.646009 11.1372C1.08531 12.6943 1.96161 14.0929 3.17114 15.1675C4.38068 16.242 5.8728 16.9475 7.47083 17.2002V11.287H5.32162V8.84046H7.47083V6.97483C7.42456 6.53933 7.47463 6.09897 7.61752 5.68499C7.76041 5.27099 7.99262 4.8935 8.29767 4.57926C8.60272 4.26502 8.97314 4.02172 9.3827 3.86661C9.79227 3.7115 10.231 3.64837 10.6676 3.68171C11.3026 3.69005 11.9361 3.74523 12.5629 3.84679V5.9325H11.4962C11.3146 5.90874 11.1298 5.92615 10.9557 5.98342C10.7816 6.04069 10.6227 6.13638 10.4906 6.26339C10.3585 6.3904 10.2567 6.54549 10.1926 6.71718C10.1286 6.88887 10.104 7.07276 10.1206 7.25525V8.84257H12.4687L12.0931 11.2891H10.1163V17.2055C12.1081 16.8904 13.922 15.8747 15.2315 14.3412C16.541 12.8076 17.26 10.857 17.2592 8.84046Z" fill="#7C29DD"/>
</g>
<defs>
<clipPath id="clip0_21_178">
<rect width="16.9312" height="16.9312" fill="white" transform="translate(0.328278 0.372925)"/>
</clipPath>
</defs>
</svg>
