<svg width="18" height="18" viewBox="0 0 18 18" fill="none" xmlns="http://www.w3.org/2000/svg">
<g clip-path="url(#clip0_21_187)">
<path d="M13.085 5.50739C13.6461 5.50739 14.1009 5.05257 14.1009 4.49152C14.1009 3.93047 13.6461 3.47565 13.085 3.47565C12.524 3.47565 12.0691 3.93047 12.0691 4.49152C12.0691 5.05257 12.524 5.50739 13.085 5.50739Z" fill="#7C29DD"/>
<path d="M8.69859 13.0713C6.3642 13.0713 4.46579 11.1729 4.46579 8.83852C4.46579 6.50413 6.3642 4.60571 8.69859 4.60571C11.033 4.60571 12.9314 6.50413 12.9314 8.83852C12.9314 11.1729 11.033 13.0713 8.69859 13.0713ZM8.69859 6.72212C7.5314 6.72212 6.58219 7.67132 6.58219 8.83852C6.58219 10.0057 7.5314 10.9549 8.69859 10.9549C9.86575 10.9549 10.815 10.0057 10.815 8.83852C10.815 7.67132 9.86575 6.72212 8.69859 6.72212Z" fill="#7C29DD"/>
<path d="M12.9314 17.3041H4.46584C2.29018 17.3041 0.233032 15.247 0.233032 13.0713V4.60573C0.233032 2.43007 2.29018 0.372925 4.46584 0.372925H12.9314C15.1071 0.372925 17.1642 2.43007 17.1642 4.60573V13.0713C17.1642 15.247 15.1071 17.3041 12.9314 17.3041ZM4.46584 2.48933C3.47642 2.48933 2.34943 3.61631 2.34943 4.60573V13.0713C2.34943 14.0798 3.45737 15.1877 4.46584 15.1877H12.9314C13.9209 15.1877 15.0478 14.0608 15.0478 13.0713V4.60573C15.0478 3.61631 13.9209 2.48933 12.9314 2.48933H4.46584Z" fill="#7C29DD"/>
</g>
<defs>
<clipPath id="clip0_21_187">
<rect width="16.9312" height="16.9312" fill="white" transform="translate(0.233032 0.372925)"/>
</clipPath>
</defs>
</svg>
