<svg width="14" height="14" viewBox="0 0 14 14" fill="none" xmlns="http://www.w3.org/2000/svg">
<g clip-path="url(#clip0_21_194)">
<path d="M6.87881 0.971985C3.55935 0.971985 0.858826 3.67251 0.858826 6.99197C0.858826 10.3115 3.55935 13.012 6.87881 13.012C10.1983 13.012 12.8988 10.3115 12.8988 6.99197C12.8988 3.67251 10.1983 0.971985 6.87881 0.971985ZM6.52608 3.92687C5.98945 3.90381 5.45823 3.82839 4.951 3.70576C5.03202 3.51378 5.11992 3.32942 5.21472 3.1547C5.60365 2.43803 6.08112 1.93512 6.52608 1.75296V3.92687ZM6.52608 4.63288V6.63924H4.32287C4.35392 5.85615 4.48739 5.07876 4.70813 4.37164C5.29307 4.51898 5.90714 4.60817 6.52608 4.63288ZM6.52608 7.34471V9.35106C5.90714 9.37574 5.29307 9.46498 4.70813 9.61232C4.48739 8.9052 4.35392 8.12779 4.32287 7.34471H6.52608ZM6.52608 10.0571V12.231C6.08112 12.0488 5.60365 11.5459 5.21472 10.8293C5.11992 10.6545 5.03202 10.4702 4.951 10.2782C5.45823 10.1556 5.98935 10.0802 6.52608 10.0571ZM7.23155 10.0571C7.76819 10.0802 8.29938 10.1556 8.80664 10.2782C8.7256 10.4702 8.6377 10.6545 8.54289 10.8293C8.154 11.5459 7.67654 12.0488 7.23155 12.231V10.0571ZM7.23155 9.35106V7.34471H9.43475C9.40367 8.12779 9.27025 8.9052 9.04947 9.61232C8.46455 9.46498 7.85052 9.37574 7.23155 9.35106ZM7.23155 6.63924V4.63288C7.85052 4.60817 8.46455 4.51898 9.04947 4.37164C9.27025 5.07876 9.40367 5.85615 9.43475 6.63924H7.23155ZM7.23155 3.92687V1.75296C7.67654 1.93512 8.154 2.43803 8.54289 3.1547C8.6377 3.32942 8.7256 3.51378 8.80664 3.70576C8.29938 3.82839 7.76819 3.90381 7.23155 3.92687ZM9.16295 2.81823C8.98634 2.49269 8.79445 2.20573 8.59218 1.96093C9.29742 2.20178 9.93629 2.58712 10.4736 3.08131C10.1672 3.24546 9.83689 3.38802 9.48953 3.50717C9.39096 3.26778 9.28199 3.0375 9.16295 2.81823ZM4.59468 2.81823C4.47563 3.0375 4.36669 3.26778 4.26813 3.50717C3.92072 3.38802 3.59049 3.24537 3.28405 3.08131C3.82133 2.58712 4.4602 2.20178 5.16548 1.96093C4.96322 2.20573 4.77141 2.4926 4.59468 2.81823ZM4.02948 4.17019C3.78872 4.94042 3.64716 5.7801 3.61667 6.63924H1.57633C1.65183 5.49276 2.09211 4.4443 2.78251 3.60968C3.16565 3.8294 3.58526 4.01735 4.02948 4.17019ZM3.61667 7.34471C3.64716 8.20395 3.78872 9.04351 4.02948 9.81377C3.58526 9.9666 3.16565 10.1546 2.78251 10.3743C2.09211 9.53963 1.65183 8.49118 1.57633 7.34471H3.61667ZM4.26813 10.4768C4.36669 10.7162 4.47563 10.9464 4.59468 11.1657C4.77141 11.4912 4.96322 11.7782 5.16548 12.023C4.4602 11.7822 3.82133 11.3968 3.28414 10.9026C3.5904 10.7386 3.92072 10.5959 4.26813 10.4768ZM9.16295 11.1657C9.28199 10.9464 9.39096 10.7162 9.48953 10.4768C9.83689 10.5959 10.1672 10.7386 10.4736 10.9026C9.93629 11.3968 9.29742 11.7822 8.59218 12.023C8.79445 11.7782 8.98619 11.4913 9.16295 11.1657ZM9.72815 9.81377C9.96887 9.04351 10.1105 8.20387 10.141 7.34471H12.1813C12.1058 8.49118 11.6655 9.53963 10.9751 10.3743C10.5919 10.1546 10.1723 9.9666 9.72815 9.81377ZM10.141 6.63924C10.1105 5.78 9.96887 4.94042 9.72815 4.17019C10.1723 4.01735 10.5919 3.8294 10.9751 3.60968C11.6655 4.4443 12.1058 5.49276 12.1813 6.63924H10.141Z" fill="#7C29DD"/>
</g>
<defs>
<clipPath id="clip0_21_194">
<rect width="13.545" height="13.545" fill="white" transform="translate(0.106354 0.219482)"/>
</clipPath>
</defs>
</svg>
