<svg width="19" height="19" viewBox="0 0 19 19" fill="none" xmlns="http://www.w3.org/2000/svg">
<path d="M16.4983 3.64958C16.094 3.24504 15.6139 2.92413 15.0855 2.70519C14.5571 2.48624 13.9907 2.37355 13.4188 2.37355C12.8468 2.37355 12.2804 2.48624 11.752 2.70519C11.2236 2.92413 10.7435 3.24504 10.3392 3.64958L9.50001 4.48875L8.66085 3.64958C7.84409 2.83282 6.73633 2.37397 5.58126 2.37397C4.42619 2.37397 3.31844 2.83282 2.50168 3.64958C1.68492 4.46634 1.22607 5.57409 1.22607 6.72916C1.22607 7.88423 1.68492 8.99199 2.50168 9.80875L3.34085 10.6479L9.50001 16.8071L15.6592 10.6479L16.4983 9.80875C16.9029 9.4044 17.2238 8.92431 17.4427 8.3959C17.6617 7.8675 17.7744 7.30113 17.7744 6.72916C17.7744 6.15719 17.6617 5.59083 17.4427 5.06242C17.2238 4.53402 16.9029 4.05393 16.4983 3.64958V3.64958Z" stroke="black" stroke-width="2" stroke-linecap="round" stroke-linejoin="round"/>
</svg>
