<svg width="18" height="18" viewBox="0 0 18 18" fill="none" xmlns="http://www.w3.org/2000/svg">
<path d="M16.3827 0.776062H1.66869C1.26557 0.776062 0.963226 1.07841 0.963226 1.48153V16.2963C0.963226 16.5987 1.26557 16.901 1.66869 16.901H16.4835C16.8866 16.901 17.189 16.5987 17.189 16.1956V1.48153C17.0882 1.07841 16.7859 0.776062 16.3827 0.776062ZM5.69994 14.4823H3.38197V6.82293H5.80072V14.4823H5.69994ZM4.59134 5.81511C3.7851 5.81511 3.18041 5.10965 3.18041 4.40418C3.18041 3.59793 3.7851 2.99325 4.59134 2.99325C5.39759 2.99325 6.00228 3.59793 6.00228 4.40418C5.9015 5.10965 5.29681 5.81511 4.59134 5.81511ZM14.6694 14.4823H12.2507V10.7534C12.2507 9.84636 12.2507 8.73777 11.0413 8.73777C9.83196 8.73777 9.6304 9.74558 9.6304 10.7534V14.5831H7.21165V6.82293H9.52962V7.83074C9.83196 7.22605 10.6382 6.62136 11.7468 6.62136C14.1655 6.62136 14.5687 8.23386 14.5687 10.2495V14.4823H14.6694Z" fill="#7C29DD"/>
</svg>
