<svg width="17" height="20" viewBox="0 0 17 20" fill="none" xmlns="http://www.w3.org/2000/svg">
<path d="M15.5504 8.45567C15.5504 13.93 8.51201 18.6222 8.51201 18.6222C8.51201 18.6222 1.47363 13.93 1.47363 8.45567C1.47363 6.58898 2.21517 4.79874 3.53512 3.47879C4.85508 2.15884 6.64531 1.4173 8.51201 1.4173C10.3787 1.4173 12.1689 2.15884 13.4889 3.47879C14.8088 4.79874 15.5504 6.58898 15.5504 8.45567Z" stroke="black" stroke-width="1.97568" stroke-linecap="round" stroke-linejoin="round"/>
<path d="M8.51208 10.8018C9.80781 10.8018 10.8582 9.7514 10.8582 8.45567C10.8582 7.15994 9.80781 6.10954 8.51208 6.10954C7.21635 6.10954 6.16595 7.15994 6.16595 8.45567C6.16595 9.7514 7.21635 10.8018 8.51208 10.8018Z" stroke="black" stroke-width="1.97568" stroke-linecap="round" stroke-linejoin="round"/>
</svg>
