<svg width="154" height="22" viewBox="0 0 154 22" fill="none" xmlns="http://www.w3.org/2000/svg">
<path d="M1.328 17H3.024V12.92H5.184C7.312 12.92 8.768 11.56 8.768 9.672C8.768 7.768 7.312 6.44 5.184 6.44H1.328V17ZM3.024 11.416V7.944H5.152C6.352 7.944 7.024 8.648 7.024 9.688C7.024 10.728 6.352 11.416 5.152 11.416H3.024ZM23.3921 17L20.2241 12.648C21.4881 12.152 22.2561 11.064 22.2561 9.672C22.2561 7.768 20.8001 6.44 18.6721 6.44H14.8161V17H16.5121V12.92H18.4481L21.4561 17H23.3921ZM16.5121 7.944H18.6401C19.8081 7.944 20.5121 8.648 20.5121 9.688C20.5121 10.712 19.8081 11.416 18.6401 11.416H16.5121V7.944ZM28.1955 11.72C28.1315 14.744 30.7075 17.224 33.7315 17.176C36.7235 17.224 39.3475 14.744 39.2835 11.72C39.3475 8.696 36.7235 6.216 33.7315 6.264C30.7235 6.216 28.1475 8.696 28.1955 11.72ZM37.5395 11.704C37.5395 13.96 35.9075 15.624 33.7475 15.624C31.5555 15.624 29.9555 13.96 29.9555 11.704C29.9555 9.48 31.5555 7.816 33.7475 7.816C35.9075 7.816 37.5395 9.496 37.5395 11.704ZM44.8399 11.72C44.7919 14.744 47.3199 17.224 50.4079 17.176C52.5359 17.176 54.3919 16.072 55.3359 14.392V11.416H50.3919V12.92H53.6399V14.056C52.9839 15.064 51.8799 15.656 50.4879 15.656C48.2159 15.656 46.5999 13.96 46.5999 11.704C46.5999 9.48 48.1679 7.816 50.3919 7.816C51.7039 7.816 52.7599 8.376 53.5439 9.48L54.7759 8.472C53.7679 7.064 52.2479 6.264 50.4079 6.264C47.3519 6.216 44.7759 8.696 44.8399 11.72ZM70.1534 17L66.9854 12.648C68.2494 12.152 69.0174 11.064 69.0174 9.672C69.0174 7.768 67.5614 6.44 65.4334 6.44H61.5774V17H63.2734V12.92H65.2094L68.2174 17H70.1534ZM63.2734 7.944H65.4014C66.5694 7.944 67.2734 8.648 67.2734 9.688C67.2734 10.712 66.5694 11.416 65.4014 11.416H63.2734V7.944ZM82.9191 17H84.7431L80.0871 6.264H79.5111L74.8551 17H76.6631L77.4151 15.24H82.1671L82.9191 17ZM81.5591 13.784H78.0231L79.7991 9.416L81.5591 13.784ZM100.041 6.264L95.6089 12.168L91.1769 6.264H90.5849V17H92.2809V10.36L95.3209 14.344H95.8969L98.9209 10.376V17H100.617V6.264H100.041ZM116.888 6.264L112.456 12.168L108.024 6.264H107.432V17H109.128V10.36L112.168 14.344H112.744L115.768 10.376V17H117.464V6.264H116.888ZM131.368 17H133.192L128.536 6.264H127.96L123.304 17H125.112L125.864 15.24H130.616L131.368 17ZM130.008 13.784H126.472L128.248 9.416L130.008 13.784ZM147.61 17L144.442 12.648C145.706 12.152 146.474 11.064 146.474 9.672C146.474 7.768 145.018 6.44 142.89 6.44H139.034V17H140.73V12.92H142.666L145.674 17H147.61ZM140.73 7.944H142.858C144.026 7.944 144.73 8.648 144.73 9.688C144.73 10.712 144.026 11.416 142.858 11.416H140.73V7.944Z" fill="#7C29DD"/>
<path d="M154 3.39853C154 5.10021 152.737 6.39673 151 6.39673C149.263 6.39673 148 5.10021 148 3.39853C148 1.69684 149.263 0.400326 151 0.400326C152.737 0.319294 154 1.61581 154 3.39853ZM153.447 3.39853C153.447 1.93994 152.421 0.886522 151 0.886522C149.579 0.886522 148.553 1.93994 148.553 3.39853C148.553 4.85711 149.579 5.91053 151 5.91053C152.421 5.91053 153.447 4.77608 153.447 3.39853ZM152.105 4.04679L152.184 4.77608H151.632L151.553 4.04679C151.553 3.80369 151.395 3.64163 151.158 3.64163H150.526V4.77608H149.974V1.93994H151.079C151.632 1.93994 152.026 2.26407 152.026 2.8313C152.026 3.15543 151.868 3.31749 151.632 3.47956C151.947 3.56059 152.026 3.72266 152.105 4.04679ZM150.605 3.23646H151.158C151.474 3.23646 151.553 2.99337 151.553 2.8313C151.553 2.5882 151.395 2.42614 151.158 2.42614H150.605V3.23646Z" fill="#7C29DD"/>
</svg>
