<svg width="18" height="18" viewBox="0 0 18 18" fill="none" xmlns="http://www.w3.org/2000/svg">
<g clip-path="url(#clip0_21_184)">
<path d="M9.06372 0.372925C4.40764 0.372925 0.598114 4.18245 0.598114 8.83853C0.598114 12.4364 2.82034 15.5052 5.99494 16.6692C5.88912 16.0343 5.88912 14.9761 5.99494 14.2354C6.10076 13.6004 6.94732 10.0026 6.94732 10.0026C6.94732 10.0026 6.73568 9.57927 6.73568 8.83853C6.73568 7.67451 7.47642 6.72213 8.32298 6.72213C9.06372 6.72213 9.38118 7.25123 9.38118 7.88615C9.38118 8.62689 8.9579 9.68509 8.64044 10.7433C8.4288 11.5899 9.06372 12.2248 9.91028 12.2248C11.3918 12.2248 12.5558 10.6375 12.5558 8.30943C12.5558 6.29885 11.0743 4.81737 9.06372 4.81737C6.62986 4.81737 5.2542 6.61631 5.2542 8.52107C5.2542 9.26181 5.57166 10.0026 5.88912 10.4258C5.88912 10.6375 5.88912 10.7433 5.88912 10.8491C5.7833 11.1666 5.67748 11.6957 5.67748 11.8015C5.67748 11.9073 5.57166 12.0131 5.36002 11.9073C4.30182 11.3782 3.6669 9.89673 3.6669 8.62689C3.6669 5.98139 5.57166 3.54753 9.27536 3.54753C12.2383 3.54753 14.4605 5.66393 14.4605 8.41525C14.4605 11.3782 12.6616 13.7063 10.0161 13.7063C9.16954 13.7063 8.32298 13.283 8.11134 12.7539C8.11134 12.7539 7.68806 14.3412 7.58224 14.7645C7.3706 15.5052 6.8415 16.4576 6.52404 16.9867C7.3706 17.1983 8.21716 17.3041 9.06372 17.3041C13.7198 17.3041 17.5293 13.4946 17.5293 8.83853C17.5293 4.18245 13.7198 0.372925 9.06372 0.372925Z" fill="#7C29DD"/>
</g>
<defs>
<clipPath id="clip0_21_184">
<rect width="16.9312" height="16.9312" fill="white" transform="translate(0.598114 0.372925)"/>
</clipPath>
</defs>
</svg>
