<svg width="14" height="14" viewBox="0 0 14 14" fill="none" xmlns="http://www.w3.org/2000/svg">
<path d="M13.2417 12.7108L10.0808 9.54917C10.0518 9.52 10.0173 9.49694 9.97918 9.48134C9.94111 9.46574 9.90031 9.45792 9.85917 9.45833H9.51583C10.1948 8.67319 10.6338 7.70946 10.7806 6.6819C10.9275 5.65435 10.7759 4.60624 10.344 3.66236C9.9121 2.71849 9.21806 1.91861 8.3445 1.35796C7.47094 0.797309 6.45466 0.499504 5.41667 0.500001C2.425 0.500001 6.19576e-07 2.925 6.19576e-07 5.91667C-0.000495786 6.95466 0.297309 7.97094 0.857959 8.8445C1.41861 9.71806 2.21849 10.4121 3.16236 10.844C4.10624 11.2759 5.15434 11.4275 6.1819 11.2806C7.20946 11.1338 8.17319 10.6948 8.95833 10.0158V10.3592C8.95833 10.4425 8.99167 10.5208 9.05 10.5808L12.2108 13.7425C12.2399 13.7716 12.2743 13.7947 12.3123 13.8104C12.3503 13.8262 12.391 13.8343 12.4321 13.8343C12.4732 13.8343 12.5139 13.8262 12.5519 13.8104C12.5898 13.7947 12.6243 13.7716 12.6533 13.7425L13.2425 13.1533C13.301 13.0947 13.3339 13.0153 13.3339 12.9325C13.3339 12.8497 13.301 12.7703 13.2425 12.7117L13.2417 12.7108ZM5.41667 10.0833C3.11417 10.0833 1.25 8.21833 1.25 5.91667C1.25 3.61417 3.11417 1.75 5.41667 1.75C7.71833 1.75 9.58333 3.61417 9.58333 5.91667C9.58333 8.21833 7.71833 10.0833 5.41667 10.0833Z" fill="#3F7EEB"/>
</svg>
