<svg width="18" height="18" viewBox="0 0 18 18" fill="none" xmlns="http://www.w3.org/2000/svg">
<g clip-path="url(#clip0_21_175)">
<path d="M17.6247 3.23006C16.9897 3.54752 16.3548 3.65334 15.6141 3.75916C16.3548 3.33588 16.8839 2.70096 17.0956 1.8544C16.4606 2.27768 15.7199 2.48932 14.8733 2.70096C14.2384 2.06604 13.286 1.64276 12.3337 1.64276C10.5347 1.64276 8.94741 3.23006 8.94741 5.13482C8.94741 5.45229 8.94741 5.66393 9.05323 5.87557C6.19609 5.76975 3.55059 4.39408 1.85746 2.27768C1.54 2.80678 1.43418 3.33588 1.43418 4.07662C1.43418 5.24064 2.0691 6.29885 3.02149 6.93377C2.49239 6.93377 1.96328 6.72213 1.43418 6.51049C1.43418 8.20361 2.59821 9.57927 4.18551 9.89673C3.86805 10.0025 3.55059 10.0025 3.23313 10.0025C3.02149 10.0025 2.80985 10.0025 2.59821 9.89673C3.02149 11.2724 4.29133 12.3306 5.87863 12.3306C4.71461 13.283 3.23313 13.8121 1.54 13.8121C1.22254 13.8121 1.0109 13.8121 0.693443 13.8121C2.28074 14.7645 4.07969 15.3994 5.98445 15.3994C12.3337 15.3994 15.8257 10.1084 15.8257 5.5581C15.8257 5.45229 15.8257 5.24064 15.8257 5.13482C16.5665 4.60572 17.2014 3.9708 17.6247 3.23006Z" fill="#7C29DD"/>
</g>
<defs>
<clipPath id="clip0_21_175">
<rect width="16.9312" height="16.9312" fill="white" transform="translate(0.693359 0.372925)"/>
</clipPath>
</defs>
</svg>
